<?xml version="1.0" encoding="UTF-8"?><svg id="Capa_2" xmlns="http://www.w3.org/2000/svg" viewBox="0 0 702.84 169.39"><defs><style>.cls-1{fill:#294e9d;}.cls-2{fill:none;stroke:#294e9d;stroke-miterlimit:10;stroke-width:3px;}</style></defs><g id="Capa_3"><path class="cls-1" d="m261.54,25.54c1.46-.88,3.07-1.32,4.83-1.32,2.63,0,5.01.84,7.14,2.53,2.12,1.68,3.18,3.81,3.18,6.37,0,1.25-.33,2.52-.99,3.84l-28.99,59.84c-.95,1.98-2.38,3.5-4.28,4.56-1.9,1.06-3.95,1.59-6.15,1.59s-4.25-.53-6.15-1.59c-1.9-1.06-3.33-2.58-4.28-4.56l-28.99-59.84c-.59-1.17-.88-2.45-.88-3.84,0-2.49,1.1-4.59,3.29-6.31,2.2-1.72,4.65-2.58,7.36-2.58,1.76,0,3.39.44,4.89,1.32,1.5.88,2.65,2.2,3.46,3.95l21.63,46.78,21.52-46.78c.8-1.76,1.94-3.07,3.4-3.95Z"/><path class="cls-1" d="m286.58,99.77c-1.61-1.61-2.42-3.92-2.42-6.92v-58.74c0-3,.8-5.31,2.42-6.92,1.61-1.61,3.91-2.42,6.92-2.42h37.99c3.15,0,5.53.66,7.14,1.98,1.61,1.32,2.42,3.22,2.42,5.71,0,5.27-3.18,7.91-9.55,7.91h-27.67v14.71h25.47c6.37,0,9.55,2.6,9.55,7.8,0,2.49-.81,4.39-2.42,5.71-1.61,1.32-3.99,1.98-7.14,1.98h-25.47v16.03h27.67c6.37,0,9.55,2.64,9.55,7.91,0,2.49-.81,4.39-2.42,5.71-1.61,1.32-3.99,1.98-7.14,1.98h-37.99c-3,0-5.31-.8-6.92-2.42Z"/><path class="cls-1" d="m352.13,99.77c-1.61-1.61-2.42-3.92-2.42-6.92v-58.74c0-3,.8-5.31,2.42-6.92,1.61-1.61,3.91-2.42,6.92-2.42h22.18c8.56,0,15.94,1.56,22.13,4.67,6.19,3.11,10.93,7.56,14.22,13.34,3.29,5.78,4.94,12.66,4.94,20.64s-1.63,14.99-4.89,20.81c-3.26,5.82-7.98,10.27-14.16,13.34-6.19,3.07-13.6,4.61-22.24,4.61h-22.18c-3,0-5.31-.8-6.92-2.42Zm27.67-13.84c7.54,0,13.19-1.85,16.96-5.55,3.77-3.7,5.65-9.35,5.65-16.96s-1.89-13.25-5.65-16.91c-3.77-3.66-9.43-5.49-16.96-5.49h-9.88v44.91h9.88Z"/><path class="cls-1" d="m437.01,99.77c-1.61-1.61-2.42-3.92-2.42-6.92v-58.74c0-3,.8-5.31,2.42-6.92,1.61-1.61,3.91-2.42,6.92-2.42h37.99c3.15,0,5.53.66,7.14,1.98,1.61,1.32,2.42,3.22,2.42,5.71,0,5.27-3.18,7.91-9.55,7.91h-27.67v14.71h25.47c6.37,0,9.55,2.6,9.55,7.8,0,2.49-.81,4.39-2.42,5.71-1.61,1.32-3.99,1.98-7.14,1.98h-25.47v16.03h27.67c6.37,0,9.55,2.64,9.55,7.91,0,2.49-.81,4.39-2.42,5.71-1.61,1.32-3.99,1.98-7.14,1.98h-37.99c-3,0-5.31-.8-6.92-2.42Z"/><path class="cls-1" d="m502.56,99.77c-1.61-1.61-2.42-3.95-2.42-7.03v-58.63c0-3,.9-5.4,2.69-7.19,1.79-1.79,4.23-2.69,7.3-2.69s5.64.9,7.47,2.69c1.83,1.79,2.75,4.19,2.75,7.19v51.72h25.25c6.37,0,9.55,2.75,9.55,8.24,0,2.78-.79,4.83-2.36,6.15-1.58,1.32-3.97,1.98-7.19,1.98h-36.12c-3,0-5.31-.8-6.92-2.42Z"/><path class="cls-1" d="m567.83,94.61c-5.82-5.71-8.73-14.05-8.73-25.03v-35.47c0-3,.9-5.4,2.69-7.19,1.79-1.79,4.19-2.69,7.19-2.69s5.4.9,7.19,2.69c1.79,1.79,2.69,4.19,2.69,7.19v36.23c0,5.56,1.24,9.85,3.73,12.85,2.49,3,6.08,4.5,10.76,4.5s8.27-1.5,10.76-4.5c2.49-3,3.73-7.28,3.73-12.85v-36.23c0-3,.9-5.4,2.69-7.19,1.79-1.79,4.19-2.69,7.19-2.69s5.42.9,7.25,2.69c1.83,1.79,2.74,4.19,2.74,7.19v35.47c0,10.91-2.95,19.23-8.84,24.98-5.89,5.75-14.4,8.62-25.53,8.62s-19.71-2.85-25.53-8.56Z"/><path class="cls-1" d="m654.14,101.25c-5.01-1.28-9.13-3.06-12.35-5.33-1.25-.95-2.14-1.94-2.69-2.96-.55-1.02-.82-2.34-.82-3.95,0-2.2.66-4.1,1.98-5.71,1.32-1.61,2.85-2.42,4.61-2.42.95,0,1.87.15,2.74.44.88.29,1.98.84,3.29,1.65,3,1.68,5.98,2.89,8.95,3.62,2.96.73,6.31,1.1,10.05,1.1,4.32,0,7.59-.64,9.83-1.92,2.23-1.28,3.35-3.17,3.35-5.65,0-1.68-1.04-3.13-3.13-4.34-2.09-1.21-6.06-2.4-11.91-3.57-7.25-1.54-12.92-3.37-17.02-5.49-4.1-2.12-6.97-4.63-8.62-7.52-1.65-2.89-2.47-6.39-2.47-10.49,0-4.68,1.39-8.93,4.17-12.74,2.78-3.8,6.61-6.79,11.47-8.95,4.87-2.16,10.34-3.24,16.42-3.24,5.34,0,10.1.59,14.27,1.76,4.17,1.17,7.98,3,11.42,5.49,1.32.95,2.25,1.96,2.8,3.02.55,1.06.82,2.36.82,3.9,0,2.2-.64,4.1-1.92,5.71-1.28,1.61-2.8,2.42-4.56,2.42-.95,0-1.83-.13-2.64-.38-.81-.26-1.94-.82-3.4-1.7-.37-.22-1.41-.79-3.13-1.7-1.72-.91-3.73-1.65-6.04-2.2-2.31-.55-4.81-.82-7.52-.82-3.73,0-6.74.71-9,2.14-2.27,1.43-3.4,3.31-3.4,5.66,0,1.39.4,2.53,1.21,3.4.8.88,2.31,1.74,4.5,2.58,2.2.84,5.45,1.7,9.77,2.58,7.03,1.54,12.55,3.39,16.58,5.55,4.02,2.16,6.88,4.67,8.56,7.52,1.68,2.85,2.53,6.22,2.53,10.1,0,4.83-1.36,9.1-4.06,12.79-2.71,3.7-6.5,6.55-11.36,8.56-4.87,2.01-10.52,3.02-16.96,3.02-5.86,0-11.29-.64-16.31-1.92Z"/><path class="cls-1" d="m207.48,115.9v25.68h13.6v3.05h-17.48v-28.73h3.88Z"/><path class="cls-1" d="m228.88,113.84v3.97h-3.88v-3.97h3.88Zm0,9.43v21.36h-3.88v-21.36h3.88Z"/><path class="cls-1" d="m253.09,134.39v.42c0,3.13-.74,5.63-2.23,7.49-1.48,1.86-3.51,2.8-6.09,2.8-2.79,0-4.88-1.08-6.27-3.25l-.46,2.83h-3.18v-30.79h3.88v11.95c1.4-1.94,3.41-2.92,6.01-2.92s4.64,1.04,6.12,3.11c1.48,2.08,2.22,4.86,2.22,8.36Zm-9.39-8.31c-2.28,0-3.95,1.08-5,3.25v9.26c1.07,2.24,2.76,3.36,5.07,3.36,1.8,0,3.15-.63,4.07-1.9.91-1.26,1.37-3.01,1.37-5.23l-.04-.42c0-2.54-.46-4.57-1.38-6.06-.92-1.5-2.28-2.25-4.08-2.25Z"/><path class="cls-1" d="m261.74,144.65h-3.88v-21.36h3.47l.37,3.11c1.3-2.35,3.07-3.53,5.31-3.53.53,0,1.02.07,1.49.22l-.53,3.64-2-.13c-2,0-3.41.93-4.23,2.79v15.26Z"/><path class="cls-1" d="m280.55,145.09c-2.97,0-5.33-.98-7.1-2.94-1.76-1.96-2.64-4.54-2.64-7.74v-.88c0-3,.9-5.52,2.69-7.56,1.79-2.04,3.94-3.06,6.46-3.06,2.84,0,5,.85,6.5,2.56,1.5,1.7,2.25,4.04,2.25,7.01v2.43h-13.86l-.07.09c.04,2.11.57,3.8,1.59,5.1,1.02,1.29,2.41,1.94,4.18,1.94,2.49,0,4.5-.7,6.05-2.11l1.54,2.52h-.02c-1.78,1.75-4.31,2.63-7.57,2.63Zm4.25-13.73c0-1.61-.42-2.91-1.25-3.89-.83-.99-2.03-1.48-3.6-1.48-1.29,0-2.39.54-3.32,1.62-.93,1.08-1.5,2.46-1.72,4.15l.04.11h9.85v-.5Z"/><path class="cls-1" d="m296.98,144.65h-3.88v-21.36h3.47l.37,3.11c1.3-2.35,3.07-3.53,5.31-3.53.53,0,1.02.07,1.49.22l-.53,3.64-2-.13c-2,0-3.41.93-4.23,2.79v15.26Z"/><path class="cls-1" d="m306.85,117.46l3.79-5.81h4.43l-5.29,5.81h-2.94Zm3.71,5.81v21.36h-3.66v-21.36h3.66Z"/><path class="cls-1" d="m323.01,145.09c-2.22,0-3.92-.56-5.09-1.69-1.17-1.13-1.75-2.7-1.75-4.74s.82-3.63,2.46-4.78c1.64-1.16,3.89-1.73,6.75-1.73h4.21v-2.11c0-1.26-.38-2.25-1.15-2.97-.77-.72-1.81-1.09-3.11-1.09s-2.36.31-3.15.93c-.79.62-1.18,1.39-1.18,2.31h-3.71l-.04-.11c-.07-1.61.68-3.04,2.25-4.31,1.57-1.26,3.58-1.9,6.01-1.9s4.38.63,5.82,1.88c1.45,1.25,2.17,3.02,2.17,5.3v10.29c0,1.65.18,3.09.55,4.3h-4.01c-.28-1.36-.42-2.43-.44-3.2-.76,1.08-1.72,1.96-2.88,2.62-1.16.67-2.39,1-3.7,1Zm-2.92-6.34h-.02c0,.96.3,1.72.9,2.26.6.54,1.53.81,2.79.81s2.46-.35,3.61-1.06c1.15-.71,1.9-1.54,2.25-2.49v-3.49h-4.34c-1.55,0-2.8.38-3.75,1.15-.95.77-1.43,1.71-1.43,2.82Z"/><path class="cls-1" d="m359.4,145.09c-2.97,0-5.33-.98-7.1-2.94-1.76-1.96-2.64-4.54-2.64-7.74v-.88c0-3,.9-5.52,2.69-7.56,1.79-2.04,3.94-3.06,6.46-3.06,2.84,0,5,.85,6.5,2.56,1.5,1.7,2.25,4.04,2.25,7.01v2.43h-13.86l-.07.09c.04,2.11.57,3.8,1.59,5.1,1.02,1.29,2.41,1.94,4.18,1.94,2.49,0,4.5-.7,6.05-2.11l1.54,2.52h-.02c-1.78,1.75-4.31,2.63-7.57,2.63Zm4.25-13.73c0-1.61-.42-2.91-1.25-3.89-.83-.99-2.03-1.48-3.6-1.48-1.29,0-2.39.54-3.32,1.62-.93,1.08-1.5,2.46-1.72,4.15l.04.11h9.85v-.5Z"/><path class="cls-1" d="m383.13,141.18c.79-.55,1.18-1.28,1.18-2.18s-.34-1.63-1.01-2.16c-.67-.53-1.89-1-3.66-1.41-2.69-.58-4.67-1.36-5.93-2.34-1.27-.97-1.9-2.31-1.9-4.02s.75-3.17,2.24-4.38c1.49-1.21,3.44-1.81,5.83-1.81s4.34.63,5.82,1.9c1.48,1.27,2.19,2.83,2.12,4.7l-.04.11h-3.71c0-.98-.4-1.83-1.2-2.54-.8-.72-1.84-1.07-3.14-1.07s-2.29.29-2.99.87c-.7.58-1.05,1.31-1.05,2.2s.31,1.57.92,2.04c.61.47,1.82.89,3.62,1.27,2.75.6,4.77,1.4,6.05,2.4,1.29,1,1.93,2.33,1.93,3.98,0,1.9-.76,3.44-2.29,4.61-1.53,1.17-3.58,1.75-6.15,1.75s-4.65-.67-6.24-2.02c-1.59-1.34-2.34-2.98-2.27-4.89l.04-.11h3.71c.07,1.32.57,2.31,1.48,2.97.91.67,2.06,1,3.43,1l-.04-.04c1.37,0,2.46-.27,3.25-.82Z"/><path class="cls-1" d="m396.09,134.41c0,2.3.42,4.11,1.27,5.44.92,1.46,2.39,2.19,4.41,2.19,1.32,0,2.46-.4,3.42-1.21.96-.8,1.45-1.78,1.45-2.92h3.49l.04.13c.07,1.86-.74,3.49-2.43,4.91-1.7,1.42-3.68,2.13-5.97,2.13-3.04,0-5.4-.99-7.08-2.96-1.68-1.97-2.52-4.55-2.52-7.72v-.83c0-3.16.84-5.72,2.53-7.7,1.69-1.97,4.05-2.96,7.07-2.96,2.49,0,4.53.73,6.12,2.19s2.36,3.28,2.3,5.46l-.04.11h-3.51c0-1.32-.46-2.43-1.38-3.33-.92-.91-2.07-1.36-3.43-1.36s-2.49.34-3.36,1.03c-.87.69-1.48,1.58-1.84,2.68-.36,1.1-.54,2.39-.54,3.88v.83Z"/><path class="cls-1" d="m413.61,134.23v-.44c0-3.22.86-5.83,2.59-7.85,1.72-2.02,4.05-3.03,6.97-3.03s5.25,1.01,6.97,3.02c1.72,2.01,2.59,4.63,2.59,7.86v.44c0,3.25-.86,5.87-2.58,7.86-1.72,2-4.04,2.99-6.97,2.99s-5.26-1-6.99-3c-1.73-2-2.59-4.62-2.59-7.85Zm3.9-.44v.44c0,2.37.49,4.26,1.46,5.68.97,1.42,2.37,2.13,4.2,2.13s3.23-.71,4.21-2.14c.98-1.43,1.47-3.32,1.47-5.67v-.44c0-2.32-.49-4.21-1.48-5.65-.99-1.44-2.39-2.16-4.21-2.16s-3.22.72-4.19,2.16c-.97,1.44-1.46,3.32-1.46,5.65Z"/><path class="cls-1" d="m441.71,113.84v30.79h-3.88v-30.79h3.88Z"/><path class="cls-1" d="m453.77,145.09c-2.22,0-3.92-.56-5.09-1.69-1.17-1.13-1.75-2.7-1.75-4.74s.82-3.63,2.46-4.78c1.64-1.16,3.89-1.73,6.75-1.73h4.21v-2.11c0-1.26-.38-2.25-1.15-2.97-.77-.72-1.81-1.09-3.11-1.09s-2.36.31-3.15.93c-.79.62-1.18,1.39-1.18,2.31h-3.71l-.04-.11c-.07-1.61.68-3.04,2.25-4.31,1.57-1.26,3.58-1.9,6.01-1.9s4.38.63,5.82,1.88c1.45,1.25,2.17,3.02,2.17,5.3v10.29c0,1.65.18,3.09.55,4.3h-4.01c-.28-1.36-.42-2.43-.44-3.2-.76,1.08-1.72,1.96-2.88,2.62-1.16.67-2.39,1-3.7,1Zm-2.92-6.34h-.02c0,.96.3,1.72.9,2.26.6.54,1.53.81,2.79.81s2.46-.35,3.61-1.06c1.15-.71,1.9-1.54,2.25-2.49v-3.49h-4.34c-1.55,0-2.8.38-3.75,1.15-.95.77-1.43,1.71-1.43,2.82Z"/><path class="cls-1" d="m473.79,144.65h-3.88v-21.36h3.47l.37,3.11c1.3-2.35,3.07-3.53,5.31-3.53.53,0,1.02.07,1.49.22l-.53,3.64-2-.13c-2,0-3.41.93-4.23,2.79v15.26Z"/><path class="cls-1" d="m496.71,154.21c-.56,0-1.32-.1-2.3-.31l.39-3.07c.96.07,1.54.11,1.73.11.76,0,1.4-.32,1.92-.97.52-.64.99-1.51,1.41-2.59l.92-2.24-7.94-20.92h4.34l4.54,13.44.68,2.68h.13l5.24-16.12h4.32l-8.97,24.63c-1.36,3.57-3.5,5.35-6.43,5.35Z"/><path class="cls-1" d="m529.92,134.41c0,2.3.42,4.11,1.27,5.44.92,1.46,2.39,2.19,4.41,2.19,1.32,0,2.46-.4,3.42-1.21.96-.8,1.45-1.78,1.45-2.92h3.49l.04.13c.07,1.86-.74,3.49-2.43,4.91-1.7,1.42-3.68,2.13-5.97,2.13-3.04,0-5.4-.99-7.08-2.96-1.68-1.97-2.52-4.55-2.52-7.72v-.83c0-3.16.84-5.72,2.53-7.7,1.69-1.97,4.05-2.96,7.07-2.96,2.49,0,4.53.73,6.12,2.19,1.59,1.46,2.36,3.28,2.3,5.46l-.04.11h-3.51c0-1.32-.46-2.43-1.38-3.33-.92-.91-2.07-1.36-3.43-1.36s-2.49.34-3.36,1.03c-.87.69-1.48,1.58-1.84,2.68-.36,1.1-.54,2.39-.54,3.88v.83Z"/><path class="cls-1" d="m547.44,134.23v-.44c0-3.22.86-5.83,2.59-7.85,1.72-2.02,4.05-3.03,6.97-3.03s5.25,1.01,6.97,3.02c1.72,2.01,2.59,4.63,2.59,7.86v.44c0,3.25-.86,5.87-2.58,7.86-1.72,2-4.04,2.99-6.97,2.99s-5.26-1-6.99-3c-1.73-2-2.59-4.62-2.59-7.85Zm3.9-.44v.44c0,2.37.49,4.26,1.46,5.68.97,1.42,2.37,2.13,4.2,2.13s3.23-.71,4.21-2.14c.98-1.43,1.47-3.32,1.47-5.67v-.44c0-2.32-.49-4.21-1.48-5.65-.99-1.44-2.39-2.16-4.21-2.16s-3.22.72-4.19,2.16c-.97,1.44-1.46,3.32-1.46,5.65Z"/><path class="cls-1" d="m575.23,144.63h-3.86v-21.36h3.47l.28,2.81c1.46-2.13,3.63-3.2,6.5-3.2s4.82,1.32,5.84,3.95c1.48-2.63,3.66-3.95,6.54-3.95,2.24,0,3.97.76,5.2,2.27,1.23,1.51,1.84,3.75,1.84,6.72v12.76h-3.88v-12.81c0-2.06-.35-3.54-1.05-4.44-.7-.9-1.75-1.35-3.15-1.35s-2.51.45-3.33,1.35c-.83.9-1.31,2.07-1.46,3.52v13.73h-3.93v-12.81c0-1.99-.36-3.45-1.09-4.39-.72-.94-1.8-1.4-3.24-1.4-2.25,0-3.82.93-4.69,2.79v15.81Z"/><path class="cls-1" d="m615.52,145.09c-2.97,0-5.33-.98-7.1-2.94-1.76-1.96-2.64-4.54-2.64-7.74v-.88c0-3,.9-5.52,2.69-7.56,1.79-2.04,3.94-3.06,6.46-3.06,2.84,0,5,.85,6.5,2.56,1.5,1.7,2.25,4.04,2.25,7.01v2.43h-13.86l-.07.09c.04,2.11.57,3.8,1.59,5.1,1.02,1.29,2.41,1.94,4.18,1.94,2.49,0,4.5-.7,6.05-2.11l1.54,2.52h-.02c-1.78,1.75-4.31,2.63-7.57,2.63Zm4.25-13.73c0-1.61-.42-2.91-1.25-3.89-.83-.99-2.03-1.48-3.6-1.48-1.29,0-2.39.54-3.32,1.62-.93,1.08-1.5,2.46-1.72,4.15l.04.11h9.85v-.5Z"/><path class="cls-1" d="m631.94,144.65h-3.88v-21.36h3.47l.37,3.11c1.3-2.35,3.07-3.53,5.31-3.53.53,0,1.02.07,1.49.22l-.53,3.64-2-.13c-2,0-3.41.93-4.23,2.79v15.26Z"/><path class="cls-1" d="m644.56,134.41c0,2.3.42,4.11,1.27,5.44.92,1.46,2.39,2.19,4.41,2.19,1.32,0,2.46-.4,3.42-1.21.96-.8,1.45-1.78,1.45-2.92h3.49l.04.13c.07,1.86-.74,3.49-2.43,4.91-1.7,1.42-3.68,2.13-5.97,2.13-3.04,0-5.4-.99-7.08-2.96-1.68-1.97-2.52-4.55-2.52-7.72v-.83c0-3.16.84-5.72,2.53-7.7,1.69-1.97,4.05-2.96,7.07-2.96,2.49,0,4.53.73,6.12,2.19,1.59,1.46,2.36,3.28,2.3,5.46l-.04.11h-3.51c0-1.32-.46-2.43-1.38-3.33-.92-.91-2.07-1.36-3.43-1.36s-2.49.34-3.36,1.03c-.87.69-1.48,1.58-1.84,2.68-.36,1.1-.54,2.39-.54,3.88v.83Z"/><path class="cls-1" d="m667.19,113.84v3.97h-3.88v-3.97h3.88Zm0,9.43v21.36h-3.88v-21.36h3.88Z"/><path class="cls-1" d="m679.25,145.09c-2.22,0-3.92-.56-5.09-1.69-1.17-1.13-1.75-2.7-1.75-4.74s.82-3.63,2.46-4.78c1.64-1.16,3.89-1.73,6.75-1.73h4.21v-2.11c0-1.26-.38-2.25-1.15-2.97-.77-.72-1.81-1.09-3.11-1.09s-2.36.31-3.15.93c-.79.62-1.18,1.39-1.18,2.31h-3.71l-.04-.11c-.07-1.61.68-3.04,2.25-4.31,1.57-1.26,3.58-1.9,6.01-1.9s4.38.63,5.82,1.88c1.45,1.25,2.17,3.02,2.17,5.3v10.29c0,1.65.18,3.09.55,4.3h-4.01c-.28-1.36-.42-2.43-.44-3.2-.76,1.08-1.72,1.96-2.88,2.62-1.16.67-2.39,1-3.7,1Zm-2.92-6.34h-.02c0,.96.3,1.72.9,2.26.6.54,1.53.81,2.79.81s2.46-.35,3.61-1.06c1.15-.71,1.9-1.54,2.25-2.49v-3.49h-4.34c-1.55,0-2.8.38-3.75,1.15-.95.77-1.43,1.71-1.43,2.82Z"/><path class="cls-1" d="m699.58,113.84v30.79h-3.88v-30.79h3.88Z"/><path class="cls-2" d="m168.05,84.77c0,35.08-21.46,64.82-52.16,77.07l-.23-56.75c-.32-3.44-1.3-7.49-2.75-11.87-4.29-12.98-12.67-28.98-19.96-41.3-3.77-6.34-7.24-11.72-9.73-15.22-3.44,4.68-6.65,9.94-9.61,15.42-6.26,11.5-11.4,23.98-15.13,34.05l-16.76-27.86L1.77,91.44c-.19-2.2-.27-4.42-.27-6.66C1.5,38.79,38.77,1.5,84.77,1.5s83.27,37.29,83.27,83.27Z"/><path class="cls-2" d="m58.49,86.18c-.92,2.51-6.17,18.5-6.94,20.67l.17,54.12C24.08,149.04,4.25,122.83,1.77,91.44l39.95-33.12,16.76,27.86Z"/><path class="cls-2" d="m92.95,51.92c-3.61.9-10.03,1.72-19.34.2,2.96-5.48,6.17-10.74,9.61-15.42,2.49,3.5,5.95,8.87,9.73,15.22Z"/><polyline class="cls-2" points="69.89 167.03 69.89 164.27 69.89 93.39"/><polyline class="cls-2" points="96.64 167.21 96.64 164.95 96.64 93.45"/><path class="cls-2" d="m96.64,93.23h-26.75l-17.81,12.6s1.18-4.75,3.88-12.6c.77-2.17,1.6-4.54,2.53-7.05,3.73-10.07,8.87-22.55,15.13-34.05,9.31,1.52,15.72.69,19.34-.2,7.28,12.33,15.67,28.33,19.96,41.3,1.45,4.38,2.43,8.43,2.75,11.87l-19.02-11.87Z"/><path class="cls-2" d="m113.43,94.86s18.2-31.96,24.48-34.16c5.03-1.73,29.98,18.99,29.98,18.99"/><path class="cls-2" d="m126.21,74.22s33.11,28.16,39.47,30.37"/><path class="cls-2" d="m115.66,111.46s28,24.92,33.38,26.87"/><circle class="cls-2" cx="84.7" cy="84.7" r="83.2"/><line class="cls-2" x1="51.29" y1="74.22" x2="25.76" y2="94.86"/><line class="cls-2" x1="51.29" y1="111.46" x2="44.15" y2="116.91"/></g></svg>