<?xml version="1.0" encoding="UTF-8"?><svg id="Capa_2" xmlns="http://www.w3.org/2000/svg" viewBox="0 0 442.11 441.7"><defs><style>.cls-1{fill:none;stroke:#fff;stroke-miterlimit:10;stroke-width:10px;}</style></defs><g id="Capa_1-2"><path class="cls-1" d="m437.11,221.05c0,91-55.68,168.17-135.32,199.96l-.61-147.24c-.82-8.92-3.37-19.42-7.12-30.78-11.14-33.67-32.88-75.18-51.78-107.16-9.79-16.46-18.79-30.41-25.24-39.48-8.92,12.15-17.25,25.8-24.93,40.01-16.24,29.85-29.58,62.21-39.26,88.34l-43.5-72.29L5.71,238.34c-.49-5.7-.71-11.47-.71-17.29C5,101.74,101.7,5,221.05,5s216.05,96.74,216.05,216.05Z"/><path class="cls-1" d="m152.85,224.69c-2.4,6.52-16.01,48.01-17.99,53.63l.43,140.43C63.59,387.78,12.12,319.78,5.71,238.34l103.64-85.94,43.5,72.29Z"/><path class="cls-1" d="m242.28,135.82c-9.37,2.32-26.02,4.46-50.17.53,7.69-14.21,16.01-27.86,24.93-40.01,6.45,9.07,15.45,23.02,25.24,39.48Z"/><polyline class="cls-1" points="182.43 434.47 182.43 427.3 182.43 243.41"/><polyline class="cls-1" points="251.84 434.93 251.84 429.08 251.84 243.55"/><path class="cls-1" d="m251.84,242.99h-69.41l-46.22,32.68s3.06-12.32,10.07-32.68c1.99-5.62,4.16-11.77,6.56-18.3,9.67-26.13,23.02-58.49,39.26-88.34,24.15,3.94,40.8,1.8,50.17-.53,18.9,31.98,40.65,73.49,51.78,107.16,3.75,11.36,6.3,21.86,7.12,30.78l-49.35-30.78Z"/><path class="cls-1" d="m295.41,247.21s47.22-82.93,63.51-88.63c13.04-4.48,77.78,49.26,77.78,49.26"/><path class="cls-1" d="m328.55,193.68s85.89,73.07,102.39,78.79"/><path class="cls-1" d="m301.18,290.28s72.65,64.65,86.61,69.7"/><circle class="cls-1" cx="220.85" cy="220.85" r="215.85"/><line class="cls-1" x1="134.19" y1="193.68" x2="67.94" y2="247.21"/><line class="cls-1" x1="134.19" y1="290.28" x2="115.64" y2="304.43"/></g></svg>